<?xml version="1.0" encoding="UTF-8" standalone="no"?>
<!-- Created with Inkscape (http://www.inkscape.org/) -->

<svg
   version="1.1"
   id="svg59"
   width="340.79999"
   height="352"
   viewBox="0 0 340.79999 352"
   sodipodi:docname="23smiles-logo-4.svg"
   inkscape:version="1.2.2 (732a01da63, 2022-12-09)"
   xmlns:inkscape="http://www.inkscape.org/namespaces/inkscape"
   xmlns:sodipodi="http://sodipodi.sourceforge.net/DTD/sodipodi-0.dtd"
   xmlns="http://www.w3.org/2000/svg"
   xmlns:svg="http://www.w3.org/2000/svg">
  <defs
     id="defs63" />
  <sodipodi:namedview
     id="namedview61"
     pagecolor="#ffffff"
     bordercolor="#000000"
     borderopacity="0.25"
     inkscape:showpageshadow="2"
     inkscape:pageopacity="0.0"
     inkscape:pagecheckerboard="0"
     inkscape:deskcolor="#d1d1d1"
     showgrid="false"
     inkscape:zoom="2.8284271"
     inkscape:cx="229.27937"
     inkscape:cy="145.13367"
     inkscape:window-width="1920"
     inkscape:window-height="1001"
     inkscape:window-x="-9"
     inkscape:window-y="1341"
     inkscape:window-maximized="1"
     inkscape:current-layer="g65" />
  <g
     inkscape:groupmode="layer"
     inkscape:label="Image"
     id="g65">
    <path
       style="fill:#0f6eb7;stroke:none;stroke-width:0.8"
       d="m 102.94228,24.607695 -0.8,0.8 c 3.8936,7.621039 16.5304,12.07952 24,15.444479 27.364,12.327121 54.0504,13.930321 82.4,4.030241 10.4752,-3.65808 21.0024,-8.6056 32,-10.446321 5.0536,-0.845839 10.22,-1.649519 14.22,2.351201 3.8272,3.82664 3.972,9.9656 4.2552,15.0204 0.604,10.78632 -0.0752,21.2216 -0.0752,31.999999 5.5376,-2.09888 15.4096,-7.63808 18.3776,-12.938879 2.0472,-3.6556 0.8224,-10.18744 0.8224,-14.26112 0,-15.560001 -3.1552,-35.56336 -20.8,-40.408 -26.4104,-7.251425 -52.7272,15.82664 -77.6,20.9796 -26.9944,5.59264 -51.324,-5.61784 -76.8,-12.5716 M 67.742279,119.80769 c -3.51967,-14.2872 -4.44511,-29.299996 -4.86415,-43.928396 -0.26752,-9.337679 0.75144,-17.95528 10.46415,-22.178399 18.4688,-8.030081 41.992801,13.32056 59.200001,17.72408 30.8872,7.904479 60.248,-2.693041 86.4,-18.81728 -5.9824,-1.83432 -16.3176,2.692 -22.4,4.09016 -12.8256,2.94832 -26.0416,4.454559 -39.2,3.87832 -31.6224,-1.3848 -63.094401,-40.0872 -95.199991,-22.9092 -21.7908,11.659039 -20.58616,37.684799 -17.82528,58.940719 0.62712,4.827996 -0.0751,14.999196 3.31168,18.728796 3.36296,3.704 15.3324,4.3728 20.11359,4.4712 m 224.800001,-67.199995 12.5392,8.509839 8.2608,11.490161 c 4.3936,-14.898721 -8.7184,-20 -20.8,-20 m 6.4,14.399999 c -57.556,41.343996 -121.764,72.102396 -194.4,67.127996 -28.078401,-1.9224 -55.669111,-8.9808 -82.399991,-17.528 9.97896,12.9296 32.35768,20.3896 47.19999,25.9392 57.684801,21.5688 121.008801,10.9552 172.800001,-20.5016 16.88,-10.2528 32.3032,-23.539996 45.4672,-38.238396 3.4408,-3.84144 11.7832,-11.377199 11.3328,-16.7992 M 11.742289,127.80769 h 0.8 c 3.64096,-10.7624 9.79072,-14.4584 16,-23.2 -14.86736,0.1248 -19.2706401,9.892 -16.8,23.2 m 0.8,176.8 2.4,8 1.51875,0.0312 c 0.89336,-16.3184 19.85101,-4.13365 8.00965,4.05355 -1.50208,1.0392 -2.97528,1.2808 -4.7284,1.5152 v 0.8 c 16.2596,5.696 8.4543,21.4622 -6.2125,21.775 l -0.1875,1.425 c 7.41008,2.7752 16.3364,1.6304 21.97408,-4.3744 6.00616,-6.3968 5.53228,-17.5705 -3.81158,-19.10685 7.23939,-3.5304 8.99186,-12.88615 0.23438,-17.01475 -6.27616,-2.652 -13.55544,-0.3104 -19.19688,2.896 m 36,0 2.3375,8.58125 2.3625,-0.0312 c 1.94592,-9.2744 13.75824,-14.0364 13.48584,-1.35 -0.24912,11.5992 -12.17429,19.3307 -17.46709,28.4875 5.98016,0 21.04389,0.006 26.63629,0.14635 0.93095,-3.8487 1.5245,-6.65995 1.9637,-9.64635 l 0.5125,-3.40625 c -4.8554,7.118 -0.28126,5.83125 -18.38124,5.83125 6.31568,-5.0912 14.01639,-10.3941 15.48679,-19.0125 4.7593,-15.0668 -18.92069,-15.65835 -26.93679,-9.6 m 41.59999,24 h -0.8 c -6.9498,14.26201 15.896801,16.6752 22.637601,7.8496 11.01445,-14.66223 -9.97219,-18.33487 -15.620701,-26.3071 -2.55031,-9.66638 11.852001,-5.59506 13.783101,-0.7423 l 1.46291,-0.0884 -0.13258,-8.35355 c -3.97174,-0.29397 -7.45993,-0.39886 -10.93033,-0.31406 -2.204801,0.0536 -4.397601,0.5208 -6.388001,1.492 -13.67915,8.40524 0.4175,20.43748 7.984801,24.3424 2.44847,1.26347 6.46423,4.05365 5.0736,6.9096 -4.33696,8.90685 -15.990881,3.53961 -16.451681,-4.87639 m 39.381281,-27.91161 c -0.7584,9.6088 -2.3448,19.2496 -3.6608,28.8 -0.6504,4.7192 -0.7352,8.8944 -5.9392,10.4 v 0.8 l 12.57452,-0.0884 v -1.28613 c -4.55328,-3.45453 -1.92121,-14.61595 -1.37452,-20.22548 h 0.8 l 12.8,22.13483 h 2.3026 l 10.4974,-22.93483 h 0.8 c 0.236,5.4888 4.6072,18.2616 -0.8,21.6 v 0.8 l 17.10936,0.0442 0.0442,-1.24194 c -5.2136,-1.508 -5.62795,-5.28305 -6.29275,-10.00225 -1.29501,-9.40921 -2.27733,-18.95243 -3.04208,-28.66742 l -1.41872,-0.13258 -16,28 -17.47192,-28.22097 m 114.36031,0.22547 -0.0884,1.5955 c 2.5408,1.2816 3.6952,2.6448 3.9528,5.6008 0.6368,7.3016 3.2264,28.3784 -3.9528,31.9992 v 0.8 h 20 l 9.18987,-0.11529 2.01013,-11.08471 h -0.8 c -3.5648,8.1 -9.5808,8.49064 -17.6,8.49064 l 0.30936,-14.97903 c 5.1456,0 9.69704,-0.78601 11.69064,4.88839 h 0.8 v -12.8 h -0.8 c -2.5216,5.2312 -6.43745,4.62322 -11.60225,4.62322 l 0.0884,-15.82322 c 5.8608,0 12.45146,-0.98456 13.91386,6.09064 l 1.41872,0.0442 -0.0884,-9.46741 -1.4393,0.0487 m 15.70672,28.30485 -1.77227,0.35355 c -5.976,14.1616 17.13702,16.1079 23.25292,7.34148 11.72599,-15.73052 -11.02381,-18.6034 -16.3016,-27.1448 -1.9496,-9.1456 11.7984,-5.32475 14.4232,-0.32475 l 1.50711,0.13258 0.0929,-8.30936 c -3.4952,-0.01 -6.9304,-0.21287 -10.4,-0.20647 -2.1352,0.003 -4.66337,-0.11974 -6.61777,0.77306 -16.0848,7.3456 1.43617,20.20854 8.21377,25.37174 2.0328,1.548 4.7096,3.7152 4.4312,6.588 -5.01648,9.04748 -15.87527,4.45043 -16.69687,-3.51437 M 181.34229,301.40788 v 0.8 c 7.2904,4.256 4.2264,22.8032 3.988,30.4 -0.1088,3.46 -0.81081,5.18145 -3.89961,6.80225 l -0.0884,1.19775 17.10485,-0.17678 0.17678,-1.02097 c -7.0672,-4.1256 -4.97777,-25.39908 -4.13377,-32.88068 0.3216,-2.8528 0.69871,-4.48197 4.26635,-5.51481 l -17.41421,-0.26967 m 25.90936,0.30936 -0.30936,1.15355 c 2.5408,1.2816 3.6952,2.6448 3.9528,5.6008 0.6368,7.3016 3.2264,28.3784 -3.9528,31.9992 v 0.8 h 28.8 l 2.62097,-11.15581 -1.02097,-0.0442 c -3.7816,7.9256 -9.49981,8.0487 -17.55581,8.0487 l -0.0442,-24.8487 c -0.008,-4.46159 0.3385,-9.14667 4.7513,-11.37227 z"
       id="path2824"
       sodipodi:nodetypes="ccsssccccsscccsccccsssccccccccccccccccccccccccccccccccsccccccccccccccccssccccccccccccccccccccccccccccccccccccccccccccccccccccccccccccccccccccccccccscc" />
    <path
       style="fill:#0453a9;fill-opacity:1;stroke-width:1.16243"
       d=""
       id="path2407" />
    <path
       style="fill:#13a8d9;fill-opacity:1;stroke-width:0.916535"
       d="M 119.74621,256.23057 C 114.95687,255.66879 109.7542,253.48953 104.25,249.73961 90.262161,240.20993 74.696741,215.03968 64.987681,186.25 c -3.78753,-11.23093 -8.4119,-30.48856 -9.49979,-39.56073 l -0.33705,-2.81072 6.17458,1.65271 c 8.0206,2.14683 10.24732,2.96485 12.26986,4.50751 3.05663,2.33141 4.81203,7.23255 6.88072,19.21123 2.27556,13.17655 5.43008,23.98497 10.36094,35.5 7.21109,16.84003 18.616499,33.18427 26.018099,37.2846 2.27418,1.25984 3.17064,1.46363 6.39496,1.45373 5.94785,-0.0183 9.27624,-2.35211 12.52079,-8.77952 2.20927,-4.37654 3.73421,-10.80047 5.5094,-23.20881 2.0108,-14.05516 3.77861,-21.15086 6.78901,-27.25 4.07506,-8.25615 9.53718,-12.6175 17.95088,-14.3333 3.68854,-0.7522 4.43696,-0.7462 11.09266,0.0889 9.16957,1.15055 9.47824,1.97734 0.76189,2.04077 -9.51135,0.0692 -14.87882,1.94895 -19.41607,6.79963 -5.0734,5.42388 -7.4131,13.37749 -8.20846,27.90398 -1.24225,22.68856 -2.23175,28.73858 -5.81577,35.55898 -5.11648,9.73669 -14.63005,15.10137 -24.68812,13.92159 z"
       id="path3808" />
    <path
       style="fill:#13a8d9;fill-opacity:1;stroke-width:0.916535"
       d=""
       id="path3810" />
    <path
       style="fill:#13a8d9;fill-opacity:1;stroke-width:0.916535"
       d="M 209.81973,245.17629 C 202.98895,243.21062 198.16594,235.774 193.9781,220.75 c -5.3571,-19.21877 -7.16693,-23.36293 -12.64067,-28.94479 -3.52072,-3.59025 -6.24455,-5.3281 -10.75616,-6.8626 -4.33238,-1.47354 -5.83127,-2.42566 -5.83127,-3.70414 0,-0.54366 0.18598,-0.98847 0.41328,-0.98847 0.22731,0 2.87106,0.68543 5.875,1.52318 8.18075,2.28148 14.04529,5.31053 18.1549,9.37706 5.0286,4.97589 7.80261,9.96756 13.34602,24.01549 2.67695,6.78385 5.39624,13.39897 6.04286,14.70027 2.57126,5.17461 5.34763,5.11025 10.99574,-0.2549 9.34906,-8.8807 15.85333,-20.75041 22.6647,-41.3611 4.95889,-15.0052 9.36321,-34.66212 10.97892,-49 2.03289,-18.03994 3.22265,-20.43504 13.77858,-27.73765 2.75,-1.90245 5.95371,-4.22728 7.11935,-5.16628 1.94302,-1.56523 2.15103,-1.62985 2.5,-0.77668 0.20936,0.51184 0.36127,3.40561 0.33759,6.43061 -0.0362,4.62701 -0.40972,7.12694 -2.35304,15.75 -1.27048,5.6375 -3.0131,13.7375 -3.87249,18 -8.79849,43.63993 -21.93572,73.41904 -40.04119,90.76427 -7.86633,7.53602 -14.79309,10.41088 -20.87049,8.66202 z"
       id="path3812" />
  </g>
</svg>
