<?xml version="1.0" encoding="UTF-8" standalone="no"?>
<svg
   width="531.85791pt"
   height="531.86102pt"
   version="1.1"
   viewBox="0 0 531.85791 531.86102"
   id="svg304"
   xmlns="http://www.w3.org/2000/svg"
   xmlns:svg="http://www.w3.org/2000/svg">
  <defs
     id="defs218" />
  <g
     id="g302"
     transform="translate(-84.139746,-14.141349)">
    <path
       d="m 605.92,457.52 -92.961,-92.961 c -11.762,-11.762 -29.68,-12.32 -42.559,-3.3594 l -33.039,-33.039 c 57.68,-76.719 52.078,-186.48 -17.922,-256.48 -76.719,-76.719 -201.04,-76.719 -277.76,0 -76.719,76.719 -76.719,201.04 0,277.76 70,70 179.76,75.602 256.48,17.922 l 33.039,33.039 c -8.9609,13.441 -7.8398,30.801 3.3594,42.559 l 92.961,92.961 c 13.441,13.441 34.719,13.441 48.16,0 l 30.238,-30.238 c 13.441,-12.883 13.441,-34.723 0.004,-48.164 z M 180.32,310.24 c -54.879,-54.879 -54.879,-144.48 0,-199.36 54.879,-54.879 144.48,-54.879 199.36,0 54.879,54.879 54.879,144.48 0,199.36 -54.879,54.883 -143.92,54.883 -199.36,0 z"
       id="path220" />
    <path
       d="m 340.48,150.64 c -8.9609,-8.9609 -23.52,-8.9609 -32.48,0 l -27.441,27.441 -27.441,-27.441 c -8.9609,-8.9609 -23.52,-8.9609 -32.48,0 -8.9609,8.9609 -8.9609,23.52 0,32.48 l 27.441,27.441 -27.441,27.441 c -8.9609,8.9609 -8.9609,23.52 0,32.48 4.4805,4.4805 10.078,6.7188 16.238,6.7188 6.16,0 11.762,-2.2383 16.238,-6.7188 l 27.441,-27.441 27.441,27.441 c 4.4805,4.4805 10.641,6.7188 16.238,6.7188 5.6016,0 11.762,-2.2383 16.238,-6.7188 8.9609,-8.9609 8.9609,-23.52 0,-32.48 l -27.441,-27.441 27.441,-27.441 c 8.9688,-8.9609 8.9688,-23.52 0.008,-32.48 z"
       id="path222" />
  </g>
</svg>
