<svg
      xmlns="http://www.w3.org/2000/svg"
      width="340.8"
      height="352"
      version="1.1"
      viewBox="0 0 340.8 352"
    >
      <g>
        <path
          fill="#0f6eb7"
          stroke="none"
          strokeWidth="0.8"
          d="M102.942 24.608l-.8.8c3.894 7.62 16.53 12.08 24 15.444 27.364 12.327 54.05 13.93 82.4 4.03 10.475-3.658 21.003-8.605 32-10.446 5.054-.846 10.22-1.65 14.22 2.351 3.827 3.827 3.972 9.966 4.255 15.02.604 10.787-.075 21.222-.075 32 5.538-2.098 15.41-7.637 18.378-12.938 2.047-3.656.822-10.188.822-14.261 0-15.56-3.155-35.564-20.8-40.408-26.41-7.252-52.727 15.826-77.6 20.98-26.994 5.592-51.324-5.619-76.8-12.572m-35.2 95.2c-3.52-14.288-4.445-29.3-4.864-43.929-.267-9.337.752-17.955 10.464-22.178 18.47-8.03 41.993 13.32 59.2 17.724 30.887 7.904 60.248-2.693 86.4-18.817-5.982-1.835-16.317 2.692-22.4 4.09-12.825 2.948-26.041 4.454-39.2 3.878-31.622-1.385-63.094-40.087-95.2-22.909-21.79 11.659-20.586 37.685-17.825 58.94.627 4.829-.075 15 3.312 18.73 3.363 3.703 15.332 4.372 20.113 4.47m224.8-67.2l12.54 8.51 8.26 11.49c4.394-14.898-8.718-20-20.8-20m6.4 14.4c-57.556 41.345-121.764 72.103-194.4 67.129-28.078-1.923-55.669-8.981-82.4-17.528 9.98 12.93 32.358 20.39 47.2 25.939 57.685 21.569 121.01 10.955 172.8-20.502 16.88-10.253 32.303-23.54 45.467-38.238 3.441-3.842 11.784-11.377 11.333-16.8m-287.2 60.8h.8c3.641-10.762 9.791-14.458 16-23.2-14.867.125-19.27 9.893-16.8 23.2m.8 176.8l2.4 8 1.519.032c.893-16.319 19.851-4.134 8.01 4.053-1.502 1.04-2.976 1.281-4.729 1.516v.8c16.26 5.696 8.455 21.462-6.212 21.775l-.188 1.425c7.41 2.775 16.337 1.63 21.974-4.375 6.007-6.397 5.533-17.57-3.811-19.107 7.24-3.53 8.992-12.886.234-17.014-6.276-2.652-13.555-.31-19.197 2.896m36 0l2.338 8.58 2.362-.03c1.946-9.275 13.759-14.037 13.486-1.35-.249 11.599-12.174 19.33-17.467 28.487 5.98 0 21.044.006 26.636.147.931-3.85 1.525-6.66 1.964-9.647l.513-3.406c-4.856 7.118-.282 5.831-18.382 5.831 6.316-5.091 14.017-10.394 15.487-19.012 4.76-15.067-18.92-15.659-26.937-9.6m41.6 24h-.8c-6.95 14.262 15.897 16.675 22.638 7.85 11.014-14.663-9.972-18.336-15.62-26.308-2.551-9.666 11.851-5.595 13.782-.742l1.463-.089-.132-8.353c-3.972-.294-7.46-.399-10.93-.314-2.206.053-4.398.52-6.389 1.492-13.679 8.405.418 20.437 7.985 24.342 2.449 1.264 6.464 4.054 5.074 6.91-4.337 8.907-15.991 3.54-16.452-4.877m39.381-27.911c-.758 9.609-2.345 19.25-3.66 28.8-.65 4.72-.736 8.894-5.94 10.4v.8l12.575-.089v-1.286c-4.553-3.454-1.921-14.616-1.375-20.225h.8l12.8 22.135h2.303l10.497-22.935h.8c.236 5.489 4.607 18.261-.8 21.6v.8l17.11.044.044-1.242c-5.214-1.508-5.628-5.283-6.293-10.002-1.295-9.41-2.277-18.953-3.042-28.668l-1.419-.132-16 28-17.472-28.221m114.36.225l-.088 1.596c2.541 1.281 3.695 2.645 3.953 5.6.637 7.302 3.226 28.38-3.953 32v.8h20l9.19-.115 2.01-11.085h-.8c-3.565 8.1-9.58 8.49-17.6 8.49l.31-14.979c5.145 0 9.697-.786 11.69 4.889h.8v-12.8h-.8c-2.521 5.231-6.437 4.623-11.602 4.623l.088-15.823c5.861 0 12.452-.985 13.914 6.09l1.419.045-.088-9.468-1.44.049m15.707 28.305l-1.772.353c-5.976 14.162 17.137 16.108 23.253 7.342 11.726-15.73-11.024-18.604-16.302-27.145-1.95-9.146 11.798-5.325 14.423-.325l1.507.133.093-8.31c-3.495-.01-6.93-.212-10.4-.206-2.135.003-4.663-.12-6.617.773-16.085 7.346 1.436 20.209 8.213 25.372 2.033 1.548 4.71 3.715 4.431 6.588-5.016 9.047-15.875 4.45-16.696-3.514m-106.93-28.482v.8c7.29 4.256 4.226 22.803 3.987 30.4-.109 3.46-.81 5.181-3.9 6.802l-.088 1.198 17.105-.177.177-1.02c-7.067-4.126-4.978-25.4-4.134-32.882.322-2.852.699-4.482 4.266-5.514l-17.414-.27m25.91.31l-.31 1.153c2.541 1.281 3.695 2.645 3.953 5.6.637 7.302 3.226 28.38-3.953 32v.8h28.8l2.621-11.156-1.02-.044c-3.782 7.925-9.5 8.049-17.557 8.049l-.044-24.85c-.008-4.46.339-9.146 4.752-11.371z"
        ></path>
        <path
          fill="#13a8d9"
          fillOpacity="1"
          strokeWidth="0.917"
          d="M119.746 256.23c-4.79-.561-9.992-2.74-15.496-6.49-13.988-9.53-29.553-34.7-39.262-63.49-3.788-11.23-8.412-30.489-9.5-39.56l-.337-2.811 6.174 1.652c8.021 2.147 10.248 2.965 12.27 4.508 3.057 2.331 4.812 7.232 6.881 19.211 2.276 13.177 5.43 23.985 10.36 35.5 7.212 16.84 18.617 33.184 26.019 37.285 2.274 1.26 3.17 1.463 6.395 1.453 5.948-.018 9.276-2.352 12.52-8.78 2.21-4.376 3.735-10.8 5.51-23.208 2.011-14.055 3.779-21.15 6.79-27.25 4.074-8.256 9.536-12.617 17.95-14.333 3.689-.752 4.437-.746 11.093.089 9.17 1.15 9.478 1.977.762 2.04-9.512.07-14.88 1.95-19.416 6.8-5.074 5.424-7.414 13.377-8.209 27.904-1.242 22.689-2.232 28.739-5.816 35.559-5.116 9.737-14.63 15.101-24.688 13.922z"
        ></path>
        <path
          fill="#13a8d9"
          fillOpacity="1"
          strokeWidth="0.917"
          d="M209.82 245.176c-6.831-1.965-11.654-9.402-15.842-24.426-5.357-19.219-7.167-23.363-12.64-28.945-3.521-3.59-6.245-5.328-10.757-6.862-4.332-1.474-5.831-2.426-5.831-3.705 0-.543.186-.988.413-.988.228 0 2.871.685 5.875 1.523 8.181 2.282 14.046 5.31 18.155 9.377 5.029 4.976 7.803 9.968 13.346 24.016 2.677 6.784 5.396 13.399 6.043 14.7 2.571 5.175 5.348 5.11 10.996-.255 9.349-8.88 15.853-20.75 22.665-41.361 4.958-15.005 9.363-34.662 10.978-49 2.033-18.04 3.223-20.435 13.779-27.738 2.75-1.902 5.954-4.227 7.12-5.166 1.942-1.565 2.15-1.63 2.5-.777.209.512.36 3.406.337 6.431-.036 4.627-.41 7.127-2.353 15.75-1.27 5.638-3.013 13.738-3.873 18-8.798 43.64-21.935 73.419-40.04 90.764-7.867 7.536-14.794 10.411-20.871 8.662z"
        ></path>
      </g>
    </svg>